<svg id="Ebene_1" data-name="Ebene 1" xmlns="http://www.w3.org/2000/svg" viewBox="0 0 156.01 309.73"><path d="M341.3,457.87c-2.29,1.27-3.84,2.16-5.42,3-12.89,6.76-24.8-.11-25.46-14.78-.23-5.14-.08-10.31-.08-15.46,0-30.11-.13-60.22.05-90.32.1-17.09,7.19-30.41,22.49-38.85a41.83,41.83,0,0,1,3.93-2.16c3.45-1.46,4.71-3.72,4.61-7.68-.31-13-.14-25.94-.11-38.91,0-5.64,2-8.22,6.32-8.33,4.56-.12,6.67,2.48,6.69,8.43,0,11.74,0,23.49,0,35.94,2.09-1.05,3.53-1.72,4.93-2.48,13.43-7.2,25.59-.35,25.92,14.88.3,14,.13,27.94.14,41.91,0,20.62,0,41.25,0,61.87.06,18.36-7.07,32.66-23.83,41-5.73,2.85-7.67,6.32-7.34,12.66.59,11.62.18,23.28.16,34.92,0,6-2.44,9.3-6.65,9.17-4.05-.13-6.35-3.34-6.36-9C341.29,482.05,341.3,470.41,341.3,457.87Zm31-102.11q0-24.94,0-49.88a29.36,29.36,0,0,0-.21-5c-.8-4.6-2.26-5.35-6.33-3.06-8.24,4.64-16.21,9.79-24.64,14.07-12.82,6.51-17.74,17.2-17.74,30.89q0,48.62,0,97.25a34.4,34.4,0,0,0,.27,5.47c.81,5,2.32,5.73,6.67,3.28,8.52-4.81,16.85-10,25.48-14.61,11.52-6.17,16.35-16,16.47-28.57C372.38,389,372.27,372.38,372.27,355.76Z" transform="translate(-229.35 -244.36)"/><path d="M273.37,509.5c0,12.75-.05,24.68,0,36.62,0,3.69-1,6.65-4.85,7.69-4.63,1.26-8.13-1.82-8.17-7.25-.07-13-.24-25.95.09-38.91.11-4.43-1.11-7-5.18-8.88-13.95-6.4-22.41-17.31-25.29-32.39a47.39,47.39,0,0,1-.61-8.92q-.06-50.4,0-100.79a37.56,37.56,0,0,1,1.09-9.82c3-10.71,12.54-14.93,22.65-10.22,2.22,1,4.35,2.26,7.2,3.76,0-11.86,0-23.08,0-34.31,0-7.1,2-10.35,6.38-10.43s6.63,3.36,6.64,10.23c0,12.47.15,24.95-.1,37.42-.07,3.65,1,5.76,4.3,7.32,12.32,5.76,21.31,14.65,24.85,28.14a47.86,47.86,0,0,1,1.83,11.72q.21,52.14,0,104.28a31,31,0,0,1-1,7.85c-3,11-12.49,15.37-22.88,10.53C278.35,512.17,276.34,511,273.37,509.5Zm-31-102.26c0,17-.11,33.92,0,50.87.09,9.57,3,18.52,11.06,24,10.27,7,21.41,12.67,32.17,18.93,2.75,1.6,4.37.83,4.95-2.25a23.88,23.88,0,0,0,.67-4.41c0-34.41.2-68.82-.08-103.23-.08-9.85-3.7-18.83-12.35-24.36-9.77-6.25-20-11.79-30.13-17.49-3.76-2.12-5.36-1.21-6.11,3.13a29.36,29.36,0,0,0-.21,5Q242.38,382.32,242.4,407.24Z" transform="translate(-229.35 -244.36)"/></svg>