<svg width="157" height="310" viewBox="0 0 157 310" fill="none" xmlns="http://www.w3.org/2000/svg">
<g clip-path="url(#clip0_19_47)">
<path d="M111.95 213.51C109.66 214.78 108.11 215.67 106.53 216.51C93.64 223.27 81.73 216.4 81.07 201.73C80.84 196.59 80.99 191.42 80.99 186.27C80.99 156.16 80.86 126.05 81.04 95.95C81.14 78.86 88.23 65.5399 103.53 57.0999C104.8 56.3102 106.112 55.5891 107.46 54.9399C110.91 53.4799 112.17 51.2199 112.07 47.2599C111.76 34.2599 111.93 21.32 111.96 8.34996C111.96 2.70996 113.96 0.129955 118.28 0.0199551C122.84 -0.100045 124.95 2.49995 124.97 8.44995C124.97 20.1899 124.97 31.9399 124.97 44.3899C127.06 43.3399 128.5 42.6699 129.9 41.9099C143.33 34.7099 155.49 41.5599 155.82 56.7899C156.12 70.7899 155.95 84.73 155.96 98.7C155.96 119.32 155.96 139.95 155.96 160.57C156.02 178.93 148.89 193.23 132.13 201.57C126.4 204.42 124.46 207.89 124.79 214.23C125.38 225.85 124.97 237.51 124.95 249.15C124.95 255.15 122.51 258.45 118.3 258.32C114.25 258.19 111.95 254.98 111.94 249.32C111.94 237.69 111.95 226.05 111.95 213.51ZM142.95 111.4C142.95 94.7733 142.95 78.1466 142.95 61.52C143.022 59.8503 142.952 58.1776 142.74 56.52C141.94 51.92 140.48 51.17 136.41 53.46C128.17 58.1 120.2 63.25 111.77 67.53C98.95 74.04 94.03 84.73 94.03 98.42C94.03 130.833 94.03 163.25 94.03 195.67C93.9745 197.498 94.0648 199.327 94.3 201.14C95.11 206.14 96.62 206.87 100.97 204.42C109.49 199.61 117.82 194.42 126.45 189.81C137.97 183.64 142.8 173.81 142.92 161.24C143.03 144.64 142.92 128.02 142.92 111.4H142.95Z" fill="white"/>
<path d="M44.02 265.14C44.02 277.89 43.97 289.82 44.02 301.76C44.02 305.45 43.02 308.41 39.17 309.45C34.54 310.71 31.04 307.63 31 302.2C30.93 289.2 30.76 276.25 31.09 263.29C31.2 258.86 29.98 256.29 25.91 254.41C11.96 248.01 3.49998 237.1 0.619981 222.02C0.135993 219.072 -0.0682493 216.086 0.00998047 213.1C-0.0300195 179.5 -0.0300195 145.903 0.00998047 112.31C-0.0606813 109.003 0.305819 105.701 1.09998 102.49C4.09998 91.78 13.64 87.56 23.75 92.27C25.97 93.27 28.1 94.53 30.95 96.03C30.95 84.17 30.95 72.9499 30.95 61.7199C30.95 54.6199 32.95 51.3699 37.33 51.2899C41.71 51.2099 43.96 54.6499 43.97 61.5199C43.97 73.9899 44.12 86.4699 43.87 98.9399C43.8 102.59 44.87 104.7 48.17 106.26C60.49 112.02 69.48 120.91 73.02 134.4C74.1136 138.216 74.7284 142.153 74.85 146.12C74.99 180.88 74.99 215.64 74.85 250.4C74.8534 253.049 74.5173 255.687 73.85 258.25C70.85 269.25 61.36 273.62 50.97 268.78C49 267.81 46.99 266.64 44.02 265.14ZM13.02 162.88C13.02 179.88 12.91 196.8 13.02 213.75C13.11 223.32 16.02 232.27 24.08 237.75C34.35 244.75 45.49 250.42 56.25 256.68C59 258.28 60.62 257.51 61.2 254.43C61.5604 252.984 61.7847 251.508 61.87 250.02C61.87 215.61 62.07 181.2 61.79 146.79C61.71 136.94 58.09 127.96 49.44 122.43C39.67 116.18 29.44 110.64 19.31 104.94C15.55 102.82 13.95 103.73 13.2 108.07C12.9878 109.728 12.9175 111.4 12.99 113.07C13.0166 129.663 13.0366 146.267 13.05 162.88H13.02Z" fill="white"/>
</g>
<defs>
<clipPath id="clip0_19_47">
<rect width="156.01" height="309.73" fill="white"/>
</clipPath>
</defs>
</svg>
